<?xml version="1.0" encoding="iso-8859-1"?>
<!-- Generator: Adobe Illustrator 19.0.0, SVG Export Plug-In . SVG Version: 6.00 Build 0)  -->
<svg version="1.1" id="Capa_1" xmlns="http://www.w3.org/2000/svg" xmlns:xlink="http://www.w3.org/1999/xlink" x="0px" y="0px"
	 viewBox="0 0 512 512" style="enable-background:new 0 0 512 512;" xml:space="preserve">
<path style="fill:#6A80FF;" d="M140.012,502h178.049l0,0c0-22.094-17.91-40.004-40.004-40.004h-98.041
	C157.923,461.996,140.012,479.906,140.012,502L140.012,502z"/>
<rect x="189.04" y="408" style="fill:#D8D8E4;" width="80" height="53.996"/>
<path style="fill:#FFFFFF;" d="M448,114.998V388c0,11.046-8.954,20-20,20H30c-11.046,0-20-8.954-20-20V114.998
	c0-11.046,8.954-20,20-20h398C439.046,94.998,448,103.952,448,114.998z"/>
<rect x="226" y="74" style="fill:#6A80FF;" width="222" height="276"/>
<path style="fill:#ADE5FF;" d="M10,349.998V388c0,11.046,8.954,20,20,20h398c11.045,0,20-8.954,20-20v-38.002H10z"/>
<polygon style="fill:#EDF2FA;" points="333.633,283 502,283 502,81.779 430.211,10 280,10 280,283 "/>
<polygon style="fill:#FFC66C;" points="430.211,10.92 430.211,81.789 501.08,81.789 "/>
<g>
	<path style="fill:#FF5D5D;" d="M153.615,306.77h-75.23C64.918,306.77,54,295.853,54,282.385v-111.23
		c0-13.467,10.918-24.385,24.385-24.385h75.23c13.467,0,24.385,10.918,24.385,24.385v111.23
		C178,295.853,167.082,306.77,153.615,306.77z"/>
	<g>
		<path id="SVGCleanerId_0" style="fill:#FF5D5D;" d="M141.216,237.974l-31.459,20.164c-5.457,3.498-12.623-0.421-12.623-6.902
			v-40.328c0-6.482,7.166-10.4,12.623-6.902l31.459,20.164C146.249,227.395,146.249,234.749,141.216,237.974z"/>
	</g>
	<g>
		<path id="SVGCleanerId_0_1_" style="fill:#FF5D5D;" d="M141.216,237.974l-31.459,20.164c-5.457,3.498-12.623-0.421-12.623-6.902
			v-40.328c0-6.482,7.166-10.4,12.623-6.902l31.459,20.164C146.249,227.395,146.249,234.749,141.216,237.974z"/>
	</g>
</g>
<g>
	<path id="SVGCleanerId_0_2_" style="fill:#FFFFFF;" d="M141.216,237.974l-31.459,20.164c-5.457,3.498-12.623-0.421-12.623-6.902
		v-40.328c0-6.482,7.166-10.4,12.623-6.902l31.459,20.164C146.249,227.395,146.249,234.749,141.216,237.974z"/>
</g>
<path d="M233.45,385.069c1.86-1.859,2.93-4.439,2.93-7.069s-1.07-5.21-2.93-7.07c-1.86-1.86-4.44-2.93-7.07-2.93
	s-5.21,1.069-7.07,2.93c-1.86,1.86-2.93,4.44-2.93,7.07s1.07,5.21,2.93,7.069c1.86,1.86,4.44,2.931,7.07,2.931
	S231.59,386.93,233.45,385.069z"/>
<path d="M116,105c2.63,0,5.21-1.07,7.07-2.931C124.93,100.21,126,97.63,126,95c0-2.641-1.07-5.21-2.93-7.07S118.63,85,116,85
	s-5.21,1.069-7.07,2.93C107.07,89.79,106,92.36,106,95c0,2.63,1.07,5.21,2.93,7.069C110.79,103.93,113.37,105,116,105z"/>
<path d="M509.07,74.707L437.281,2.929C435.406,1.054,432.863,0,430.211,0H280c-5.523,0-10,4.478-10,10v56.998h-44
	c-5.523,0-10,4.478-10,10v8h-66c-5.523,0-10,4.478-10,10s4.477,10,10,10h66v245c0,5.522,4.477,10,10,10h212V388
	c0,5.514-4.486,10-10,10H269.037h-80H30c-5.514,0-10-4.486-10-10v-28.002h156.351c5.523,0,10-4.478,10-10s-4.477-10-10-10H20v-225
	c0-5.514,4.486-10,10-10h47c5.523,0,10-4.478,10-10s-4.477-10-10-10H30c-16.542,0-30,13.458-30,30V388c0,16.542,13.458,30,30,30
	h149.037v34.021c-27.12,0.526-49.024,22.735-49.024,49.979c0,5.522,4.477,10,10,10h178.049c5.523,0,10-4.478,10-10
	c0-27.244-21.904-49.453-49.024-49.979V418H428c16.542,0,30-13.458,30-30v-95h44c5.523,0,10-4.478,10-10V81.778
	C512,79.126,510.946,76.582,509.07,74.707z M306.348,492H151.726c4.128-11.643,15.251-20.004,28.291-20.004h9.021h80h9.021
	C291.096,471.996,302.22,480.357,306.348,492z M259.037,451.996h-60V418h60V451.996z M440.211,34.14l37.655,37.65h-37.655V34.14z
	 M236,339.998v-253h34V283c0,5.522,4.477,10,10,10h158v46.998H236z M290,273V20h130.211v61.789c0,5.522,4.477,10,10,10H492V273H290z
	"/>
<path d="M452,102H330c-5.523,0-10,4.478-10,10s4.477,10,10,10h122c5.523,0,10-4.478,10-10S457.523,102,452,102z"/>
<path d="M452,150H330c-5.523,0-10,4.478-10,10s4.477,10,10,10h122c5.523,0,10-4.478,10-10S457.523,150,452,150z"/>
<path d="M330,74h61c5.523,0,10-4.478,10-10s-4.477-10-10-10h-61c-5.523,0-10,4.478-10,10S324.477,74,330,74z"/>
<path d="M413.667,198h-35c-5.523,0-10,4.478-10,10s4.477,10,10,10h35c5.523,0,10-4.478,10-10S419.189,198,413.667,198z"/>
<path d="M452,198c-2.63,0-5.21,1.069-7.07,2.93c-1.86,1.86-2.93,4.44-2.93,7.07s1.07,5.21,2.93,7.069
	c1.86,1.86,4.44,2.931,7.07,2.931s5.21-1.07,7.07-2.931c1.86-1.859,2.93-4.439,2.93-7.069s-1.07-5.21-2.93-7.07S454.63,198,452,198z
	"/>
<path d="M44,171.155v111.229c0,18.96,15.425,34.386,34.385,34.386h75.229c18.96,0,34.385-15.426,34.385-34.386V171.155
	c0-18.96-15.425-34.385-34.385-34.385H78.385C59.425,136.771,44,152.195,44,171.155z M168,171.155v111.229
	c0,7.933-6.453,14.386-14.385,14.386h-75.23c-7.932,0-14.385-6.453-14.385-14.386V171.155c0-7.932,6.453-14.385,14.385-14.385
	h75.229C161.547,156.771,168,163.224,168,171.155z"/>
<path d="M96.602,267.203c2.728,1.492,5.732,2.232,8.731,2.232c3.421,0,6.834-0.964,9.821-2.878l31.459-20.164
	c5.246-3.362,8.377-9.09,8.377-15.32c0-6.231-3.131-11.959-8.378-15.323l-31.458-20.163c-5.603-3.591-12.712-3.839-18.551-0.646
	c-5.84,3.193-9.468,9.312-9.468,15.968v40.327C87.135,257.892,90.762,264.01,96.602,267.203z M107.135,214.203l26.32,16.869
	l-26.32,16.869V214.203z"/>
<g>
</g>
<g>
</g>
<g>
</g>
<g>
</g>
<g>
</g>
<g>
</g>
<g>
</g>
<g>
</g>
<g>
</g>
<g>
</g>
<g>
</g>
<g>
</g>
<g>
</g>
<g>
</g>
<g>
</g>
</svg>
